<svg width="600" height="216" viewBox="0 0 600 216" fill="none" xmlns="http://www.w3.org/2000/svg">
<path d="M568.403 109.293C563.278 109.293 559 108.144 555.563 105.847C552.192 103.551 549.428 99.8012 547.273 94.5993L558.495 89.634C559.572 92.2686 560.82 94.3628 562.236 95.9166C563.717 97.4028 565.335 98.146 567.088 98.146C568.368 98.146 569.313 97.8759 569.919 97.3353C570.592 96.7948 570.93 96.0519 570.93 95.106C570.93 93.5521 570.324 92.1334 569.11 90.85C567.963 89.5665 565.875 87.6748 562.842 85.1753L558.596 81.6286C555.494 78.994 553.036 76.4606 551.216 74.0286C549.462 71.5292 548.587 68.4553 548.587 64.8073C548.587 61.6321 549.396 58.8286 551.014 56.3966C552.698 53.9646 554.922 52.0732 557.686 50.722C560.447 49.3708 563.414 48.6953 566.583 48.6953C571.436 48.6953 575.48 50.0126 578.715 52.6473C581.95 55.282 584.24 58.9974 585.589 63.794L574.772 68.658C574.367 67.3745 573.792 66.0908 573.053 64.8073C572.311 63.5239 571.436 62.4428 570.425 61.5646C569.414 60.6865 568.267 60.2473 566.987 60.2473C565.907 60.2473 565.032 60.5513 564.359 61.1593C563.752 61.7673 563.449 62.578 563.449 63.5913C563.449 64.8748 564.156 66.2599 565.572 67.746C567.054 69.2321 569.076 71.0225 571.638 73.1166L575.783 76.7646C577.467 78.1833 579.119 79.7033 580.737 81.3246C582.354 82.946 583.669 84.7361 584.68 86.6953C585.757 88.6545 586.297 90.8839 586.297 93.3833C586.297 96.7612 585.454 99.666 583.77 102.098C582.083 104.463 579.858 106.253 577.097 107.469C574.399 108.685 571.502 109.293 568.403 109.293Z" fill="#B18A8B"/>
<path d="M489.53 125.303V113.853C491.618 113.853 493.337 113.717 494.686 113.447C496.101 113.177 497.144 112.671 497.82 111.927C498.559 111.184 498.932 110.171 498.932 108.887C498.932 107.739 498.73 106.354 498.325 104.733C497.921 103.044 497.415 101.152 496.809 99.058L483.059 49.7087H498.527L505.908 83.554L511.468 49.7087H527.037L513.591 109.698C512.713 113.751 511.332 116.893 509.446 119.122C507.557 121.419 505.232 123.007 502.47 123.885C499.772 124.831 496.708 125.303 493.27 125.303H489.53Z" fill="#B18A8B"/>
<path d="M470.766 108.887C466.384 108.887 463.013 108.245 460.656 106.962C458.296 105.679 456.644 103.821 455.703 101.389C454.824 98.8892 454.388 95.8828 454.388 92.37V60.5513H448.727V49.7087H454.388V31.874H471.07V49.7087H479.36V60.5513H471.07V90.7487C471.07 92.4374 471.54 93.6534 472.485 94.3966C473.496 95.1399 474.741 95.5113 476.226 95.5113C477.101 95.5113 477.91 95.4774 478.652 95.41C479.391 95.2748 480.067 95.1734 480.674 95.106V108.077C479.796 108.212 478.415 108.381 476.529 108.583C474.64 108.786 472.719 108.887 470.766 108.887Z" fill="#B18A8B"/>
<path d="M435.322 108.887C430.94 108.887 427.572 108.245 425.212 106.962C422.852 105.679 421.203 103.821 420.258 101.389C419.383 98.8892 418.944 95.8828 418.944 92.37V60.5513H413.282V49.7087H418.944V31.874H435.625V49.7087H443.915V60.5513H435.625V90.7487C435.625 92.4374 436.096 93.6534 437.04 94.3966C438.051 95.1399 439.299 95.5113 440.781 95.5113C441.656 95.5113 442.465 95.4774 443.207 95.41C443.95 95.2748 444.623 95.1734 445.229 95.106V108.077C444.354 108.212 442.97 108.381 441.084 108.583C439.198 108.786 437.277 108.887 435.322 108.887Z" fill="#B18A8B"/>
<path d="M380.934 109.293C377.97 109.293 375.474 108.583 373.452 107.165C371.43 105.746 369.914 103.956 368.903 101.794C367.892 99.5646 367.386 97.3014 367.386 95.0046C367.386 91.3566 368.094 88.2828 369.509 85.7833C370.994 83.2839 372.915 81.1894 375.272 79.5006C377.632 77.8119 380.226 76.3932 383.057 75.2446C385.887 74.0286 388.687 72.9479 391.448 72.002V66.1246C391.448 65.1113 391.347 64.2332 391.145 63.49C390.942 62.6793 390.608 62.0713 390.134 61.666C389.663 61.1932 388.955 60.9566 388.011 60.9566C387.069 60.9566 386.327 61.1593 385.786 61.5646C385.316 61.97 384.978 62.5441 384.775 63.2873C384.573 63.9628 384.441 64.7399 384.371 65.618L383.967 69.874L368.6 69.266C368.938 62.2401 370.792 57.0721 374.16 53.762C377.597 50.3841 382.722 48.6953 389.527 48.6953C395.46 48.6953 399.874 50.3505 402.771 53.6606C405.738 56.9033 407.219 61.1254 407.219 66.3273V93.6873C407.219 96.1193 407.254 98.2473 407.32 100.071C407.456 101.895 407.592 103.483 407.725 104.834C407.927 106.185 408.098 107.333 408.23 108.279H393.47C393.268 106.725 393.034 105.037 392.762 103.213C392.494 101.389 392.291 100.308 392.156 99.97C391.483 102.402 390.203 104.564 388.314 106.455C386.494 108.347 384.036 109.293 380.934 109.293ZM386.797 98.146C387.473 98.146 388.08 98.0108 388.617 97.7406C389.224 97.4705 389.764 97.0988 390.235 96.626C390.709 96.1532 391.113 95.6801 391.448 95.2073V79.1966C390.102 80.0073 388.854 80.8519 387.707 81.73C386.564 82.5406 385.584 83.4526 384.775 84.466C383.967 85.4793 383.328 86.594 382.855 87.81C382.45 88.9585 382.248 90.2759 382.248 91.762C382.248 93.7212 382.652 95.2748 383.461 96.4233C384.27 97.5719 385.382 98.146 386.797 98.146Z" fill="#B18A8B"/>
<path d="M329.313 108.279V97.6393L345.388 61.7673H330.526V49.7087H362.575V59.7407L346.298 96.2207H362.777V108.279H329.313Z" fill="#B18A8B"/>
<path d="M532.765 45.5892C537.959 48.3828 543.956 51.0587 549.579 47.81C553.819 45.3602 557.279 39.3645 555.402 34.4637C554.868 33.0676 553.165 31.8665 552.044 30.9322C550.761 29.8635 549.393 28.8927 547.984 27.9985C545.267 26.2767 542.3 24.9817 539.21 24.0951C536.512 23.3209 533.451 22.4763 530.898 24.0395C528.971 25.2192 527.442 27.263 526.63 29.3442C525.483 32.2857 525.189 35.8925 526.387 38.8784C527.571 41.837 530.029 44.067 532.765 45.5892C535.523 47.1241 537.703 42.7386 534.948 41.2062C532.339 39.7546 530.598 37.6054 530.535 34.5553C530.487 32.2679 531.492 29.5318 533.328 28.3121C534.209 27.7275 535.745 28.2716 536.926 28.5537C538.815 29.0027 540.629 29.6572 542.382 30.4917C545.798 32.1182 548.799 34.3558 551.443 37.0579L550.755 36.01C551.69 39.0298 549.289 42.5625 546.603 43.8646C542.746 45.7336 538.291 43.0039 534.948 41.2062C532.168 39.7103 529.985 44.0942 532.765 45.5892Z" fill="#B18A8B"/>
<path d="M502.031 12.3068C506.818 12.942 511.471 14.5354 515.48 17.274C516.444 17.9314 517.36 18.6677 518.232 19.4418C518.826 19.9712 519.755 20.6199 519.885 21.2995C520.058 22.2166 519.6 23.7098 519.079 24.7029C518.232 26.3186 516.738 27.7156 515.079 28.4821C513.414 29.2528 511.437 29.0161 509.737 28.4691C507.699 27.8124 505.636 26.6853 503.816 25.5691C502.17 24.5619 500.512 23.1487 499.813 21.2989C498.638 18.198 499.971 13.4154 503.279 12.2279C506.243 11.1635 504.694 6.5089 501.722 7.57654C496.755 9.35909 493.946 15.127 494.569 20.2547C495.327 26.5139 500.802 29.7969 506.031 32.215C508.53 33.3699 511.335 34.1584 514.106 33.78C516.987 33.3864 519.578 31.8022 521.521 29.6695C523.117 27.9154 524.282 25.6953 524.639 23.3356C524.82 22.1507 524.851 20.9219 524.532 19.7561C524.147 18.3591 523.215 17.4042 522.188 16.4302C516.975 11.4782 510.056 8.43889 502.969 7.49931C499.864 7.08786 498.891 11.893 502.028 12.309L502.031 12.3068Z" fill="#B18A8B"/>
<path d="M522.538 28.0986C522.605 28.0982 522.671 28.1002 522.738 28.1036L522.106 28.0626C522.646 28.0982 523.17 28.2379 523.682 28.4098L523.06 28.1954C524.121 28.5621 525.129 29.0797 526.061 29.7049L525.518 29.335C526.039 29.691 526.544 30.0835 526.962 30.5607L526.548 30.0769L526.589 30.1289C527.031 30.6539 527.467 31.0572 528.168 31.1964C528.747 31.3109 529.495 31.1947 529.982 30.8454C530.503 30.4717 530.945 29.9235 531.043 29.2679C531.132 28.681 531.091 27.9297 530.69 27.4541C530.187 26.8562 529.685 26.3335 529.053 25.8769C528.342 25.3651 527.609 24.8877 526.829 24.4902C525.398 23.7609 523.827 23.2082 522.21 23.2068C520.927 23.2057 519.79 24.5539 519.929 25.8103C520.084 27.2004 521.161 28.0972 522.535 28.0991L522.538 28.0986Z" fill="#B18A8B"/>
<path d="M555.257 42.4389C555.323 42.4424 555.386 42.4456 555.449 42.4491L554.814 42.4079C555.93 42.4804 557.076 42.6375 558.154 42.9424C558.473 43.0175 558.786 43.0115 559.095 42.9238C559.411 42.8889 559.702 42.7781 559.967 42.5919C560.252 42.4199 560.473 42.1929 560.634 41.9069C560.845 41.6482 560.975 41.3502 561.029 41.0127C561.12 40.3961 561.048 39.7197 560.675 39.1988L560.261 38.7149C559.926 38.4163 559.534 38.2216 559.095 38.1313C557.756 37.751 556.318 37.6072 554.931 37.5455C554.606 37.5556 554.309 37.6402 554.034 37.8017C553.734 37.916 553.481 38.0993 553.269 38.3505C553.032 38.5962 552.874 38.8809 552.795 39.2048C552.663 39.5028 552.612 39.8179 552.647 40.1501C552.717 40.7692 552.96 41.406 553.456 41.8135L553.999 42.1831C554.397 42.3804 554.814 42.4659 555.257 42.4389Z" fill="#B18A8B"/>
<path d="M499.191 9.62393C498.306 8.54784 497.333 7.48428 496.221 6.63682C495.975 6.39979 495.69 6.24054 495.368 6.15906C495.068 6.02612 494.752 5.97644 494.424 6.01029C494.098 6.0203 493.798 6.10501 493.526 6.26651C493.226 6.3807 492.97 6.56414 492.762 6.81513C492.354 7.31173 492.07 7.95605 492.142 8.61443C492.209 9.22009 492.446 9.89313 492.948 10.2773C493.839 10.9571 494.654 11.7839 495.381 12.6329L494.967 12.1492C495.008 12.1984 495.049 12.2467 495.09 12.2974C495.261 12.5835 495.491 12.8057 495.776 12.9656C496.035 13.1773 496.332 13.31 496.67 13.364C496.989 13.439 497.302 13.4332 497.611 13.3451C497.927 13.3104 498.218 13.1993 498.483 13.0134C499.005 12.6394 499.447 12.0911 499.545 11.4359L499.586 10.8013C499.554 10.3735 499.422 9.98047 499.191 9.62032V9.62393Z" fill="#B18A8B"/>
<path d="M558.462 149.957H567.688V174.329L576.979 161.571H585.354L577.011 172.661L586.171 194.613H576.226L571.057 179.269L567.688 183.915V194.613H558.462V149.957Z" fill="#B18A8B"/>
<path d="M553.097 178.092C553.097 189.564 548.626 195.3 539.684 195.3C530.72 195.3 526.238 189.564 526.238 178.092C526.238 166.641 530.72 160.916 539.684 160.916C548.626 160.916 553.097 166.641 553.097 178.092ZM543.577 178.092C543.577 173.882 543.282 171.036 542.693 169.553C542.126 168.07 541.123 167.328 539.684 167.328C538.288 167.328 537.285 168.037 536.674 169.455C536.063 170.851 535.758 173.73 535.758 178.092C535.758 182.127 536.02 184.929 536.543 186.499C537.066 188.07 538.113 188.855 539.684 188.855C541.188 188.855 542.214 188.081 542.759 186.532C543.304 184.962 543.577 182.148 543.577 178.092Z" fill="#B18A8B"/>
<path d="M522.279 178.092C522.279 189.564 517.808 195.3 508.866 195.3C499.902 195.3 495.42 189.564 495.42 178.092C495.42 166.641 499.902 160.916 508.866 160.916C517.808 160.916 522.279 166.641 522.279 178.092ZM512.759 178.092C512.759 173.882 512.465 171.036 511.876 169.553C511.309 168.07 510.306 167.328 508.866 167.328C507.47 167.328 506.467 168.037 505.856 169.455C505.246 170.851 504.94 173.73 504.94 178.092C504.94 182.127 505.202 184.929 505.726 186.499C506.249 188.07 507.296 188.855 508.866 188.855C510.371 188.855 511.396 188.081 511.941 186.532C512.487 184.962 512.759 182.148 512.759 178.092Z" fill="#B18A8B"/>
<path d="M464.832 149.957H473.894V164.679C475.682 162.301 477.972 161.113 480.764 161.113C483.818 161.113 486.358 162.487 488.387 165.235C490.415 167.983 491.429 172.203 491.429 177.895C491.429 183.37 490.437 187.644 488.452 190.72C486.467 193.773 483.567 195.3 479.75 195.3C475.999 195.3 473.425 193.631 472.029 190.294C471.397 191.428 470.819 192.868 470.295 194.613H464.832V149.957ZM473.894 180.905C473.894 183.937 474.178 186.03 474.745 187.186C475.312 188.342 476.315 188.92 477.754 188.92C479.347 188.92 480.437 188.102 481.026 186.467C481.615 184.809 481.909 182.028 481.909 178.124C481.909 174.351 481.626 171.592 481.059 169.848C480.492 168.103 479.445 167.23 477.918 167.23C475.235 167.23 473.894 169.248 473.894 173.283V180.905Z" fill="#B18A8B"/>
<path d="M436.501 161.571H445.727L450.176 181.756L454.461 161.571H462.411L452.466 195.136C451.506 198.342 450.688 200.589 450.012 201.875C449.336 203.162 448.322 204.22 446.97 205.049C445.618 205.899 443.895 206.325 441.801 206.325C440.514 206.325 439.205 206.15 437.875 205.801V198.538C438.791 198.669 439.653 198.735 440.459 198.735C442.248 198.735 443.469 198.44 444.124 197.851C444.8 197.263 445.432 195.976 446.021 193.991L436.501 161.571Z" fill="#B18A8B"/>
<path d="M417.788 161.571H425.901V169.553C427.363 163.948 429.969 161.145 433.72 161.145C434.178 161.145 434.702 161.2 435.291 161.309V170.306C434.614 170.218 434.102 170.175 433.753 170.175C429.26 170.175 427.014 173.577 427.014 180.382V194.613H417.788V161.571Z" fill="#B18A8B"/>
<path d="M412.423 178.092C412.423 189.564 407.952 195.3 399.01 195.3C390.046 195.3 385.564 189.564 385.564 178.092C385.564 166.641 390.046 160.916 399.01 160.916C407.952 160.916 412.423 166.641 412.423 178.092ZM402.903 178.092C402.903 173.882 402.608 171.036 402.02 169.553C401.452 168.07 400.449 167.328 399.01 167.328C397.614 167.328 396.611 168.037 396 169.455C395.389 170.851 395.084 173.73 395.084 178.092C395.084 182.127 395.346 184.929 395.869 186.499C396.393 188.07 397.439 188.855 399.01 188.855C400.515 188.855 401.54 188.081 402.085 186.532C402.63 184.962 402.903 182.148 402.903 178.092Z" fill="#B18A8B"/>
<path d="M367.604 151.429L376.567 151.135V161.571H382.652V168.833H376.567V180.971C376.567 183.217 376.611 184.678 376.698 185.354C376.807 186.009 377.134 186.565 377.68 187.023C378.247 187.459 379.185 187.677 380.493 187.677C381.191 187.677 382.063 187.655 383.11 187.612V194.613C381.06 195.071 379.185 195.3 377.483 195.3C374.692 195.3 372.554 194.765 371.071 193.697C369.588 192.628 368.639 191.287 368.225 189.673C367.811 188.059 367.604 185.496 367.604 181.985V168.833H363.939V161.571H367.604V151.429Z" fill="#B18A8B"/>
<path d="M360.537 159.673L352.424 162.781C351.268 159.095 349.152 157.252 346.077 157.252C344.638 157.252 343.493 157.667 342.642 158.495C341.813 159.302 341.399 160.251 341.399 161.342C341.399 162.607 341.89 163.621 342.871 164.384C343.874 165.126 345.957 166.107 349.12 167.328C351.999 168.397 354.256 169.455 355.892 170.502C357.549 171.549 358.88 172.977 359.883 174.787C360.908 176.576 361.42 178.659 361.42 181.036C361.42 185.202 359.981 188.626 357.102 191.308C354.245 193.969 350.406 195.3 345.586 195.3C337.495 195.3 332.326 191.21 330.08 183.032L338.651 180.578C339.698 185.071 342.086 187.317 345.815 187.317C347.517 187.317 348.891 186.881 349.938 186.009C351.006 185.114 351.541 183.948 351.541 182.508C351.541 181.418 351.17 180.447 350.428 179.597C349.687 178.724 347.986 177.808 345.325 176.849C341.901 175.627 339.349 174.526 337.669 173.544C335.99 172.541 334.605 171.123 333.515 169.291C332.424 167.438 331.879 165.333 331.879 162.977C331.879 158.964 333.166 155.682 335.739 153.13C338.335 150.557 341.759 149.27 346.012 149.27C353.776 149.27 358.618 152.738 360.537 159.673Z" fill="#B18A8B"/>
<mask id="mask0_110_3" style="mask-type:luminance" maskUnits="userSpaceOnUse" x="207" y="50" width="71" height="28">
<path d="M207.714 50.917H277.662V77.6836H207.714V50.917Z" fill="white"/>
</mask>
<g mask="url(#mask0_110_3)">
<path d="M234.678 50.9224L208.213 77.4489H277.602V50.9224H234.678Z" fill="#B18A8B"/>
</g>
<mask id="mask1_110_3" style="mask-type:luminance" maskUnits="userSpaceOnUse" x="142" y="116" width="136" height="28">
<path d="M142.035 116.748H277.662V143.515H142.035V116.748Z" fill="white"/>
</mask>
<g mask="url(#mask1_110_3)">
<path d="M142.371 143.444H277.603V116.81H168.889L142.371 143.444Z" fill="#B18A8B"/>
</g>
<mask id="mask2_110_3" style="mask-type:luminance" maskUnits="userSpaceOnUse" x="13" y="50" width="265" height="160">
<path d="M13 50.917H277.662V209.25H13V50.917Z" fill="white"/>
</mask>
<g mask="url(#mask2_110_3)">
<path d="M208.424 50.9224H44.878V77.4489H144.541L12.9603 209.332H277.602V182.913H76.8464L208.424 50.9224Z" fill="#B18A8B"/>
</g>
</svg>
