<svg width="182" height="66" viewBox="0 0 182 66" fill="none" xmlns="http://www.w3.org/2000/svg">
<g clip-path="url(#clip0_4_4)">
<path d="M155.051 64.2C154.358 64.2 153.75 64.1307 153.227 63.992C152.715 63.8533 152.315 63.6453 152.027 63.368C151.75 63.0907 151.611 62.744 151.611 62.328C151.611 62.008 151.681 61.72 151.819 61.464C151.969 61.2187 152.171 61.0053 152.427 60.824C152.694 60.6427 152.993 60.488 153.323 60.36L154.331 60.536C154.214 60.632 154.102 60.7333 153.995 60.84C153.899 60.936 153.819 61.0373 153.755 61.144C153.691 61.2613 153.659 61.3947 153.659 61.544C153.659 61.7787 153.793 61.9547 154.059 62.072C154.326 62.1893 154.769 62.248 155.387 62.248C155.899 62.248 156.294 62.2 156.571 62.104C156.859 62.0187 157.003 61.8427 157.003 61.576C157.003 61.4267 156.966 61.3093 156.891 61.224C156.817 61.1387 156.694 61.0693 156.523 61.016C156.353 60.9627 156.118 60.92 155.819 60.888L153.515 60.6C153.025 60.536 152.635 60.36 152.347 60.072C152.059 59.784 151.915 59.4267 151.915 59C151.915 58.6267 152.027 58.28 152.251 57.96C152.486 57.64 152.79 57.3253 153.163 57.016L154.075 57.528C153.947 57.656 153.846 57.7787 153.771 57.896C153.697 58.0027 153.659 58.1253 153.659 58.264C153.659 58.392 153.723 58.4933 153.851 58.568C153.979 58.6427 154.209 58.7013 154.539 58.744L156.731 59.032C157.521 59.128 158.097 59.3893 158.459 59.816C158.833 60.2427 159.019 60.792 159.019 61.464C159.019 62.0613 158.886 62.5627 158.619 62.968C158.363 63.3733 157.942 63.6773 157.355 63.88C156.779 64.0933 156.011 64.2 155.051 64.2ZM155.211 58.008C154.486 58.008 153.873 57.88 153.371 57.624C152.881 57.368 152.507 57.0053 152.251 56.536C152.006 56.056 151.883 55.48 151.883 54.808C151.883 54.1147 152.011 53.528 152.267 53.048C152.523 52.568 152.897 52.2053 153.387 51.96C153.889 51.7147 154.497 51.592 155.211 51.592C155.894 51.592 156.47 51.72 156.939 51.976C157.409 52.232 157.766 52.6 158.011 53.08C158.267 53.5493 158.395 54.1253 158.395 54.808C158.395 55.48 158.273 56.056 158.027 56.536C157.793 57.0053 157.441 57.368 156.971 57.624C156.502 57.88 155.915 58.008 155.211 58.008ZM155.211 56.456C155.361 56.456 155.478 56.4293 155.563 56.376C155.659 56.312 155.729 56.216 155.771 56.088C155.825 55.96 155.862 55.7893 155.883 55.576C155.905 55.3627 155.915 55.1067 155.915 54.808C155.915 54.4987 155.905 54.2427 155.883 54.04C155.862 53.8267 155.825 53.656 155.771 53.528C155.729 53.3893 155.659 53.2933 155.563 53.24C155.478 53.176 155.361 53.144 155.211 53.144C155.073 53.144 154.955 53.176 154.859 53.24C154.763 53.2933 154.689 53.384 154.635 53.512C154.582 53.64 154.545 53.8107 154.523 54.024C154.502 54.2373 154.491 54.4987 154.491 54.808C154.491 55.1067 154.502 55.3627 154.523 55.576C154.545 55.7787 154.577 55.9493 154.619 56.088C154.673 56.216 154.747 56.312 154.843 56.376C154.939 56.4293 155.062 56.456 155.211 56.456ZM157.835 53.208L157.291 52.504C157.451 52.1947 157.649 51.9493 157.883 51.768C158.129 51.576 158.454 51.384 158.859 51.192L159.483 52.44C159.377 52.472 159.217 52.536 159.003 52.632C158.801 52.7173 158.587 52.8133 158.363 52.92C158.15 53.0267 157.974 53.1227 157.835 53.208Z" fill="#8AB19E"/>
<path d="M144.773 61.16C144.112 61.16 143.536 61.048 143.045 60.824C142.565 60.6 142.192 60.264 141.925 59.816C141.669 59.368 141.541 58.808 141.541 58.136V54.616C141.541 53.944 141.669 53.384 141.925 52.936C142.192 52.488 142.565 52.152 143.045 51.928C143.536 51.704 144.112 51.592 144.773 51.592C145.434 51.592 146.005 51.704 146.485 51.928C146.976 52.152 147.354 52.488 147.621 52.936C147.888 53.384 148.021 53.944 148.021 54.616V58.136C148.021 58.808 147.888 59.368 147.621 59.816C147.354 60.264 146.976 60.6 146.485 60.824C146.005 61.048 145.434 61.16 144.773 61.16ZM144.789 59.432C144.96 59.432 145.093 59.3893 145.189 59.304C145.285 59.208 145.349 59.08 145.381 58.92C145.424 58.7493 145.445 58.5466 145.445 58.312V54.44C145.445 54.2053 145.424 54.008 145.381 53.848C145.349 53.6773 145.285 53.5493 145.189 53.464C145.093 53.368 144.96 53.32 144.789 53.32C144.618 53.32 144.485 53.368 144.389 53.464C144.293 53.5493 144.224 53.6773 144.181 53.848C144.138 54.008 144.117 54.2053 144.117 54.44V58.312C144.117 58.5466 144.138 58.7493 144.181 58.92C144.224 59.08 144.293 59.208 144.389 59.304C144.485 59.3893 144.618 59.432 144.789 59.432Z" fill="#8AB19E"/>
<path d="M134.894 61V48.04H137.486V61H134.894Z" fill="#8AB19E"/>
<path d="M122.96 61V48.04H126.336C126.891 48.04 127.413 48.0826 127.904 48.168C128.405 48.2533 128.848 48.4186 129.232 48.664C129.616 48.8986 129.915 49.24 130.128 49.688C130.352 50.1253 130.464 50.7066 130.464 51.432C130.464 51.9546 130.384 52.3973 130.224 52.76C130.075 53.112 129.856 53.3946 129.568 53.608C129.291 53.8213 128.955 53.9653 128.56 54.04C129.061 54.104 129.483 54.2693 129.824 54.536C130.165 54.792 130.421 55.1386 130.592 55.576C130.773 56.0133 130.864 56.5413 130.864 57.16C130.864 57.832 130.773 58.4133 130.592 58.904C130.421 59.384 130.171 59.7786 129.84 60.088C129.509 60.3973 129.099 60.6266 128.608 60.776C128.128 60.9253 127.573 61 126.944 61H122.96ZM125.824 59H126.432C127.061 59 127.493 58.84 127.728 58.52C127.973 58.2 128.096 57.7306 128.096 57.112C128.096 56.6213 128.043 56.232 127.936 55.944C127.829 55.656 127.653 55.448 127.408 55.32C127.163 55.1813 126.832 55.112 126.416 55.112H125.824V59ZM125.824 53.224H126.384C126.821 53.224 127.152 53.16 127.376 53.032C127.6 52.8933 127.749 52.696 127.824 52.44C127.909 52.184 127.952 51.8746 127.952 51.512C127.952 51.1706 127.888 50.888 127.76 50.664C127.643 50.4293 127.461 50.2533 127.216 50.136C126.981 50.0186 126.683 49.96 126.32 49.96H125.824V53.224Z" fill="#8AB19E"/>
<path d="M175.797 34.32C174.175 34.32 172.821 33.9573 171.733 33.232C170.666 32.5067 169.791 31.3227 169.109 29.68L172.661 28.112C173.002 28.944 173.397 29.6053 173.845 30.096C174.314 30.5653 174.826 30.8 175.381 30.8C175.786 30.8 176.085 30.7147 176.277 30.544C176.49 30.3733 176.597 30.1387 176.597 29.84C176.597 29.3493 176.405 28.9013 176.021 28.496C175.658 28.0907 174.997 27.4933 174.037 26.704L172.693 25.584C171.711 24.752 170.933 23.952 170.357 23.184C169.802 22.3947 169.525 21.424 169.525 20.272C169.525 19.2693 169.781 18.384 170.293 17.616C170.826 16.848 171.53 16.2507 172.405 15.824C173.279 15.3973 174.218 15.184 175.221 15.184C176.757 15.184 178.037 15.6 179.061 16.432C180.085 17.264 180.81 18.4373 181.237 19.952L177.813 21.488C177.685 21.0827 177.503 20.6773 177.269 20.272C177.034 19.8667 176.757 19.5253 176.437 19.248C176.117 18.9707 175.754 18.832 175.349 18.832C175.007 18.832 174.73 18.928 174.517 19.12C174.325 19.312 174.229 19.568 174.229 19.888C174.229 20.2933 174.453 20.7307 174.901 21.2C175.37 21.6693 176.01 22.2347 176.821 22.896L178.133 24.048C178.666 24.496 179.189 24.976 179.701 25.488C180.213 26 180.629 26.5653 180.949 27.184C181.29 27.8027 181.461 28.5067 181.461 29.296C181.461 30.3627 181.194 31.28 180.661 32.048C180.127 32.7947 179.423 33.36 178.549 33.744C177.695 34.128 176.778 34.32 175.797 34.32Z" fill="#8AB19E"/>
<path d="M150.832 39.376V35.76C151.493 35.76 152.037 35.7173 152.464 35.632C152.912 35.5467 153.242 35.3867 153.456 35.152C153.69 34.9173 153.808 34.5973 153.808 34.192C153.808 33.8293 153.744 33.392 153.616 32.88C153.488 32.3467 153.328 31.7493 153.136 31.088L148.784 15.504H153.68L156.016 26.192L157.776 15.504H162.704L158.448 34.448C158.17 35.728 157.733 36.72 157.136 37.424C156.538 38.1493 155.802 38.6507 154.928 38.928C154.074 39.2267 153.104 39.376 152.016 39.376H150.832Z" fill="#8AB19E"/>
<path d="M144.893 34.192C143.506 34.192 142.439 33.9893 141.693 33.584C140.946 33.1787 140.423 32.592 140.125 31.824C139.847 31.0347 139.709 30.0853 139.709 28.976V18.928H137.917V15.504H139.709V9.87201H144.989V15.504H147.613V18.928H144.989V28.464C144.989 28.9973 145.138 29.3813 145.437 29.616C145.757 29.8507 146.151 29.968 146.621 29.968C146.898 29.968 147.154 29.9573 147.389 29.936C147.623 29.8933 147.837 29.8613 148.029 29.84V33.936C147.751 33.9787 147.314 34.032 146.717 34.096C146.119 34.16 145.511 34.192 144.893 34.192Z" fill="#8AB19E"/>
<path d="M133.674 34.192C132.287 34.192 131.221 33.9893 130.474 33.584C129.727 33.1787 129.205 32.592 128.906 31.824C128.629 31.0347 128.49 30.0853 128.49 28.976V18.928H126.698V15.504H128.49V9.87201H133.77V15.504H136.394V18.928H133.77V28.464C133.77 28.9973 133.919 29.3813 134.218 29.616C134.538 29.8507 134.933 29.968 135.402 29.968C135.679 29.968 135.935 29.9573 136.17 29.936C136.405 29.8933 136.618 29.8613 136.81 29.84V33.936C136.533 33.9787 136.095 34.032 135.498 34.096C134.901 34.16 134.293 34.192 133.674 34.192Z" fill="#8AB19E"/>
<path d="M116.459 34.32C115.521 34.32 114.731 34.096 114.091 33.648C113.451 33.2 112.971 32.6347 112.651 31.952C112.331 31.248 112.171 30.5333 112.171 29.808C112.171 28.656 112.395 27.6853 112.843 26.896C113.313 26.1067 113.921 25.4453 114.667 24.912C115.414 24.3787 116.235 23.9307 117.131 23.568C118.027 23.184 118.913 22.8427 119.787 22.544V20.688C119.787 20.368 119.755 20.0907 119.691 19.856C119.627 19.6 119.521 19.408 119.371 19.28C119.222 19.1307 118.998 19.056 118.699 19.056C118.401 19.056 118.166 19.12 117.995 19.248C117.846 19.376 117.739 19.5573 117.675 19.792C117.611 20.0053 117.569 20.2507 117.547 20.528L117.419 21.872L112.555 21.68C112.662 19.4613 113.249 17.8293 114.315 16.784C115.403 15.7173 117.025 15.184 119.179 15.184C121.057 15.184 122.454 15.7067 123.371 16.752C124.31 17.776 124.779 19.1093 124.779 20.752V29.392C124.779 30.16 124.79 30.832 124.811 31.408C124.854 31.984 124.897 32.4853 124.939 32.912C125.003 33.3387 125.057 33.7013 125.099 34H120.427C120.363 33.5093 120.289 32.976 120.203 32.4C120.118 31.824 120.054 31.4827 120.011 31.376C119.798 32.144 119.393 32.8267 118.795 33.424C118.219 34.0213 117.441 34.32 116.459 34.32ZM118.315 30.8C118.529 30.8 118.721 30.7573 118.891 30.672C119.083 30.5867 119.254 30.4693 119.403 30.32C119.553 30.1707 119.681 30.0213 119.787 29.872V24.816C119.361 25.072 118.966 25.3387 118.603 25.616C118.241 25.872 117.931 26.16 117.675 26.48C117.419 26.8 117.217 27.152 117.067 27.536C116.939 27.8987 116.875 28.3147 116.875 28.784C116.875 29.4027 117.003 29.8933 117.259 30.256C117.515 30.6187 117.867 30.8 118.315 30.8Z" fill="#8AB19E"/>
<path d="M100.12 34V30.64L105.208 19.312H100.504V15.504H110.648V18.672L105.496 30.192H110.712V34H100.12Z" fill="#8AB19E"/>
<path d="M164.517 14.2031C166.161 15.0853 168.059 15.9303 169.839 14.9044C171.181 14.1308 172.276 12.2374 171.682 10.6898C171.513 10.2489 170.974 9.86962 170.619 9.57457C170.213 9.23711 169.78 8.93052 169.334 8.64815C168.474 8.10443 167.535 7.69549 166.557 7.4155C165.703 7.17102 164.734 6.90429 163.926 7.39794C163.316 7.77049 162.832 8.4159 162.575 9.0731C162.212 10.002 162.119 11.141 162.498 12.0839C162.873 13.0182 163.651 13.7224 164.517 14.2031C165.39 14.6878 166.08 13.3029 165.208 12.819C164.382 12.3606 163.831 11.6819 163.811 10.7187C163.796 9.99638 164.114 9.13236 164.695 8.74718C164.974 8.56258 165.46 8.73439 165.834 8.82347C166.432 8.96526 167.006 9.17194 167.561 9.43547C168.642 9.94911 169.592 10.6557 170.429 11.509L170.211 11.1781C170.507 12.1317 169.747 13.2473 168.897 13.6585C167.676 14.2487 166.266 13.3867 165.208 12.819C164.328 12.3466 163.637 13.731 164.517 14.2031Z" fill="#8AB19E"/>
<path d="M154.789 3.6929C156.304 3.89346 157.777 4.39666 159.046 5.26146C159.351 5.46907 159.641 5.70159 159.917 5.94605C160.105 6.11321 160.399 6.31808 160.44 6.53268C160.495 6.82231 160.35 7.29382 160.185 7.60744C159.917 8.11767 159.444 8.55883 158.919 8.80089C158.392 9.04426 157.766 8.96951 157.228 8.79677C156.583 8.58939 155.93 8.23347 155.354 7.88099C154.833 7.56293 154.308 7.11664 154.087 6.53249C153.715 5.55325 154.137 4.04296 155.184 3.66796C156.122 3.33183 155.632 1.86197 154.691 2.19912C153.119 2.76203 152.23 4.58346 152.427 6.20275C152.667 8.17933 154.4 9.21606 156.055 9.97969C156.846 10.3444 157.734 10.5934 158.611 10.4739C159.523 10.3496 160.343 9.84934 160.958 9.17584C161.463 8.62192 161.832 7.92082 161.945 7.17567C162.002 6.80149 162.012 6.41343 161.911 6.04529C161.789 5.60415 161.494 5.3026 161.169 4.99502C159.519 3.43121 157.329 2.47144 155.086 2.17473C154.103 2.0448 153.795 3.56221 154.788 3.69358L154.789 3.6929Z" fill="#8AB19E"/>
<path d="M161.28 8.67976C161.301 8.67963 161.322 8.68027 161.343 8.68136L161.143 8.6684C161.314 8.67964 161.48 8.72376 161.642 8.77805L161.445 8.71034C161.781 8.82615 162.1 8.98958 162.395 9.18702L162.223 9.0702C162.388 9.18262 162.548 9.30658 162.68 9.45726L162.549 9.3045L162.562 9.32092C162.702 9.4867 162.84 9.61406 163.062 9.65802C163.245 9.69419 163.482 9.65747 163.636 9.54718C163.801 9.42917 163.941 9.25604 163.972 9.04902C164 8.86369 163.987 8.62644 163.86 8.47624C163.701 8.28743 163.542 8.12236 163.342 7.97819C163.117 7.81655 162.885 7.66579 162.638 7.54026C162.185 7.30998 161.688 7.13544 161.176 7.13498C160.77 7.13463 160.41 7.56038 160.454 7.95714C160.503 8.39613 160.844 8.67934 161.279 8.67992L161.28 8.67976Z" fill="#8AB19E"/>
<path d="M171.636 13.2083C171.657 13.2094 171.677 13.2104 171.697 13.2115L171.496 13.1985C171.849 13.2214 172.212 13.271 172.553 13.3673C172.654 13.391 172.753 13.3891 172.851 13.3614C172.951 13.3504 173.043 13.3154 173.127 13.2566C173.217 13.2023 173.287 13.1306 173.338 13.0403C173.405 12.9586 173.446 12.8645 173.463 12.7579C173.492 12.5632 173.469 12.3496 173.351 12.1851L173.22 12.0323C173.114 11.938 172.99 11.8765 172.851 11.848C172.427 11.7279 171.972 11.6825 171.533 11.663C171.43 11.6662 171.336 11.6929 171.249 11.7439C171.154 11.78 171.074 11.8379 171.007 11.9172C170.932 11.9948 170.882 12.0847 170.857 12.187C170.815 12.2811 170.799 12.3806 170.81 12.4855C170.832 12.681 170.909 12.8821 171.066 13.0108L171.238 13.1275C171.364 13.1898 171.496 13.2168 171.636 13.2083Z" fill="#8AB19E"/>
<path d="M153.89 2.84566C153.61 2.50584 153.302 2.16998 152.95 1.90236C152.872 1.82751 152.782 1.77722 152.68 1.75149C152.585 1.70951 152.485 1.69382 152.381 1.70451C152.278 1.70767 152.183 1.73442 152.097 1.78542C152.002 1.82148 151.921 1.87941 151.855 1.95867C151.726 2.11549 151.636 2.31896 151.659 2.52687C151.68 2.71813 151.755 2.93067 151.914 3.05199C152.196 3.26667 152.454 3.52776 152.684 3.79585L152.553 3.6431C152.566 3.65866 152.579 3.67389 152.592 3.68991C152.646 3.78025 152.719 3.85042 152.809 3.90091C152.891 3.96779 152.985 4.00968 153.092 4.02674C153.193 4.05043 153.292 4.04859 153.39 4.02076C153.49 4.00981 153.582 3.97472 153.666 3.91602C153.831 3.7979 153.971 3.62477 154.002 3.41787L154.015 3.21745C154.005 3.08237 153.963 2.95825 153.89 2.84452V2.84566Z" fill="#8AB19E"/>
<mask id="mask0_4_4" style="mask-type:luminance" maskUnits="userSpaceOnUse" x="61" y="15" width="23" height="10">
<path d="M61.6313 15.8856H83.7712V24.3382H61.6313V15.8856Z" fill="white"/>
</mask>
<g mask="url(#mask0_4_4)">
<path d="M70.166 15.8873L61.7892 24.2641H83.7524V15.8873H70.166Z" fill="#8AB19E"/>
</g>
<mask id="mask1_4_4" style="mask-type:luminance" maskUnits="userSpaceOnUse" x="40" y="36" width="44" height="10">
<path d="M40.8424 36.6744H83.7712V45.127H40.8424V36.6744Z" fill="white"/>
</mask>
<g mask="url(#mask1_4_4)">
<path d="M40.9486 45.1047H83.7525V36.694H49.3423L40.9486 45.1047Z" fill="#8AB19E"/>
</g>
<mask id="mask2_4_4" style="mask-type:luminance" maskUnits="userSpaceOnUse" x="0" y="15" width="84" height="51">
<path d="M0 15.8856H83.7712V65.8856H0V15.8856Z" fill="white"/>
</mask>
<g mask="url(#mask2_4_4)">
<path d="M61.8561 15.8873H10.0901V24.2641H41.6357L-0.0125427 65.9114H83.7524V57.5686H20.2088L61.8561 15.8873Z" fill="#8AB19E"/>
</g>
</g>
<defs>
<clipPath id="clip0_4_4">
<rect width="182" height="66" fill="white"/>
</clipPath>
</defs>
</svg>
