<svg width="182" height="66" viewBox="0 0 182 66" fill="none" xmlns="http://www.w3.org/2000/svg">
<path d="M176.18 64.16C175.518 64.16 174.942 64.048 174.452 63.824C173.972 63.6 173.598 63.264 173.332 62.816C173.076 62.368 172.948 61.808 172.948 61.136V57.616C172.948 56.944 173.076 56.384 173.332 55.936C173.598 55.488 173.972 55.152 174.452 54.928C174.942 54.704 175.518 54.592 176.18 54.592C176.841 54.592 177.412 54.704 177.892 54.928C178.382 55.152 178.761 55.488 179.028 55.936C179.294 56.384 179.428 56.944 179.428 57.616V61.136C179.428 61.808 179.294 62.368 179.028 62.816C178.761 63.264 178.382 63.6 177.892 63.824C177.412 64.048 176.841 64.16 176.18 64.16ZM176.196 62.432C176.366 62.432 176.5 62.3893 176.596 62.304C176.692 62.208 176.756 62.08 176.788 61.92C176.83 61.7493 176.852 61.5467 176.852 61.312V57.44C176.852 57.2053 176.83 57.008 176.788 56.848C176.756 56.6773 176.692 56.5493 176.596 56.464C176.5 56.368 176.366 56.32 176.196 56.32C176.025 56.32 175.892 56.368 175.796 56.464C175.7 56.5493 175.63 56.6773 175.588 56.848C175.545 57.008 175.524 57.2053 175.524 57.44V61.312C175.524 61.5467 175.545 61.7493 175.588 61.92C175.63 62.08 175.7 62.208 175.796 62.304C175.892 62.3893 176.025 62.432 176.196 62.432Z" fill="#6699CC"/>
<path d="M166.361 64V54.752H168.969V64H166.361ZM166.345 53.184V51.376H168.969V53.184H166.345Z" fill="#6699CC"/>
<path d="M159.507 64V51.04H162.099V64H159.507Z" fill="#6699CC"/>
<path d="M152.14 64.16C151.479 64.16 150.903 64.048 150.412 63.824C149.932 63.6 149.559 63.264 149.292 62.816C149.036 62.368 148.908 61.808 148.908 61.136V57.616C148.908 56.944 149.036 56.384 149.292 55.936C149.559 55.488 149.932 55.152 150.412 54.928C150.903 54.704 151.479 54.592 152.14 54.592C152.802 54.592 153.372 54.704 153.852 54.928C154.343 55.152 154.722 55.488 154.988 55.936C155.255 56.384 155.388 56.944 155.388 57.616V61.136C155.388 61.808 155.255 62.368 154.988 62.816C154.722 63.264 154.343 63.6 153.852 63.824C153.372 64.048 152.802 64.16 152.14 64.16ZM152.156 62.432C152.327 62.432 152.46 62.3893 152.556 62.304C152.652 62.208 152.716 62.08 152.748 61.92C152.791 61.7493 152.812 61.5467 152.812 61.312V57.44C152.812 57.2053 152.791 57.008 152.748 56.848C152.716 56.6773 152.652 56.5493 152.556 56.464C152.46 56.368 152.327 56.32 152.156 56.32C151.986 56.32 151.852 56.368 151.756 56.464C151.66 56.5493 151.591 56.6773 151.548 56.848C151.506 57.008 151.484 57.2053 151.484 57.44V61.312C151.484 61.5467 151.506 61.7493 151.548 61.92C151.591 62.08 151.66 62.208 151.756 62.304C151.852 62.3893 151.986 62.432 152.156 62.432Z" fill="#6699CC"/>
<path d="M141.658 64V56.512H140.778V54.752H141.658V54.064C141.658 53.52 141.711 53.0453 141.818 52.64C141.935 52.2347 142.17 51.92 142.522 51.696C142.884 51.472 143.439 51.36 144.186 51.36C144.388 51.36 144.586 51.3653 144.778 51.376C144.98 51.3867 145.199 51.408 145.434 51.44V53.376C145.359 53.3547 145.268 53.3387 145.162 53.328C145.066 53.3067 144.97 53.296 144.874 53.296C144.682 53.296 144.532 53.3547 144.426 53.472C144.319 53.5787 144.266 53.76 144.266 54.016V54.752H145.434V56.512H144.266V64H141.658Z" fill="#6699CC"/>
<path d="M136.048 64.096C135.355 64.096 134.822 63.9947 134.448 63.792C134.075 63.5893 133.814 63.296 133.664 62.912C133.526 62.5173 133.456 62.0427 133.456 61.488V56.464H132.56V54.752H133.456V51.936H136.096V54.752H137.408V56.464H136.096V61.232C136.096 61.4987 136.171 61.6907 136.32 61.808C136.48 61.9253 136.678 61.984 136.912 61.984C137.051 61.984 137.179 61.9787 137.296 61.968C137.414 61.9467 137.52 61.9307 137.616 61.92V63.968C137.478 63.9893 137.259 64.016 136.96 64.048C136.662 64.08 136.358 64.096 136.048 64.096Z" fill="#6699CC"/>
<path d="M124.499 64V54.752H127.107V56.288C127.406 55.7547 127.705 55.3493 128.003 55.072C128.302 54.784 128.665 54.64 129.091 54.64C129.177 54.64 129.251 54.6453 129.315 54.656C129.379 54.656 129.438 54.6667 129.491 54.688V57.28C129.374 57.2267 129.241 57.184 129.091 57.152C128.953 57.1093 128.803 57.088 128.643 57.088C128.345 57.088 128.067 57.168 127.811 57.328C127.555 57.488 127.321 57.7067 127.107 57.984V64H124.499Z" fill="#6699CC"/>
<path d="M117.213 64.16C116.552 64.16 115.976 64.048 115.485 63.824C115.005 63.6 114.632 63.264 114.365 62.816C114.109 62.368 113.981 61.808 113.981 61.136V57.616C113.981 56.944 114.109 56.384 114.365 55.936C114.632 55.488 115.005 55.152 115.485 54.928C115.976 54.704 116.552 54.592 117.213 54.592C117.874 54.592 118.445 54.704 118.925 54.928C119.416 55.152 119.794 55.488 120.061 55.936C120.328 56.384 120.461 56.944 120.461 57.616V61.136C120.461 61.808 120.328 62.368 120.061 62.816C119.794 63.264 119.416 63.6 118.925 63.824C118.445 64.048 117.874 64.16 117.213 64.16ZM117.229 62.432C117.4 62.432 117.533 62.3893 117.629 62.304C117.725 62.208 117.789 62.08 117.821 61.92C117.864 61.7493 117.885 61.5467 117.885 61.312V57.44C117.885 57.2053 117.864 57.008 117.821 56.848C117.789 56.6773 117.725 56.5493 117.629 56.464C117.533 56.368 117.4 56.32 117.229 56.32C117.058 56.32 116.925 56.368 116.829 56.464C116.733 56.5493 116.664 56.6773 116.621 56.848C116.578 57.008 116.557 57.2053 116.557 57.44V61.312C116.557 61.5467 116.578 61.7493 116.621 61.92C116.664 62.08 116.733 62.208 116.829 62.304C116.925 62.3893 117.058 62.432 117.229 62.432Z" fill="#6699CC"/>
<path d="M102.96 64V51.04H107.312C108.091 51.04 108.731 51.1893 109.232 51.488C109.733 51.776 110.107 52.2027 110.352 52.768C110.597 53.3227 110.72 54 110.72 54.8C110.72 55.8027 110.555 56.5707 110.224 57.104C109.893 57.6267 109.445 57.9893 108.88 58.192C108.315 58.3947 107.68 58.496 106.976 58.496H105.824V64H102.96ZM105.824 56.496H106.784C107.136 56.496 107.403 56.432 107.584 56.304C107.765 56.176 107.883 55.984 107.936 55.728C108 55.472 108.032 55.1467 108.032 54.752C108.032 54.4213 108.005 54.1333 107.952 53.888C107.909 53.632 107.797 53.4293 107.616 53.28C107.435 53.1307 107.152 53.056 106.768 53.056H105.824V56.496Z" fill="#6699CC"/>
<path d="M175.797 34.32C174.175 34.32 172.821 33.9573 171.733 33.232C170.666 32.5067 169.791 31.3227 169.109 29.68L172.661 28.112C173.002 28.944 173.397 29.6053 173.845 30.096C174.314 30.5653 174.826 30.8 175.381 30.8C175.786 30.8 176.085 30.7147 176.277 30.544C176.49 30.3733 176.597 30.1387 176.597 29.84C176.597 29.3493 176.405 28.9013 176.021 28.496C175.658 28.0907 174.997 27.4933 174.037 26.704L172.693 25.584C171.711 24.752 170.933 23.952 170.357 23.184C169.802 22.3947 169.525 21.424 169.525 20.272C169.525 19.2693 169.781 18.384 170.293 17.616C170.826 16.848 171.53 16.2507 172.405 15.824C173.279 15.3973 174.218 15.184 175.221 15.184C176.757 15.184 178.037 15.6 179.061 16.432C180.085 17.264 180.81 18.4373 181.237 19.952L177.813 21.488C177.685 21.0827 177.503 20.6773 177.269 20.272C177.034 19.8667 176.757 19.5253 176.437 19.248C176.117 18.9707 175.754 18.832 175.349 18.832C175.007 18.832 174.73 18.928 174.517 19.12C174.325 19.312 174.229 19.568 174.229 19.888C174.229 20.2933 174.453 20.7307 174.901 21.2C175.37 21.6693 176.01 22.2347 176.821 22.896L178.133 24.048C178.666 24.496 179.189 24.976 179.701 25.488C180.213 26 180.629 26.5653 180.949 27.184C181.29 27.8027 181.461 28.5067 181.461 29.296C181.461 30.3627 181.194 31.28 180.661 32.048C180.127 32.7947 179.423 33.36 178.549 33.744C177.695 34.128 176.778 34.32 175.797 34.32Z" fill="#6699CC"/>
<path d="M150.832 39.376V35.76C151.493 35.76 152.037 35.7173 152.464 35.632C152.912 35.5467 153.242 35.3867 153.456 35.152C153.69 34.9173 153.808 34.5973 153.808 34.192C153.808 33.8293 153.744 33.392 153.616 32.88C153.488 32.3467 153.328 31.7493 153.136 31.088L148.784 15.504H153.68L156.016 26.192L157.776 15.504H162.704L158.448 34.448C158.17 35.728 157.733 36.72 157.136 37.424C156.538 38.1493 155.802 38.6507 154.928 38.928C154.074 39.2267 153.104 39.376 152.016 39.376H150.832Z" fill="#6699CC"/>
<path d="M144.893 34.192C143.506 34.192 142.439 33.9893 141.693 33.584C140.946 33.1787 140.423 32.592 140.125 31.824C139.847 31.0347 139.709 30.0853 139.709 28.976V18.928H137.917V15.504H139.709V9.87201H144.989V15.504H147.613V18.928H144.989V28.464C144.989 28.9973 145.138 29.3813 145.437 29.616C145.757 29.8507 146.151 29.968 146.621 29.968C146.898 29.968 147.154 29.9573 147.389 29.936C147.623 29.8933 147.837 29.8613 148.029 29.84V33.936C147.751 33.9787 147.314 34.032 146.717 34.096C146.119 34.16 145.511 34.192 144.893 34.192Z" fill="#6699CC"/>
<path d="M133.674 34.192C132.287 34.192 131.221 33.9893 130.474 33.584C129.727 33.1787 129.205 32.592 128.906 31.824C128.629 31.0347 128.49 30.0853 128.49 28.976V18.928H126.698V15.504H128.49V9.87201H133.77V15.504H136.394V18.928H133.77V28.464C133.77 28.9973 133.919 29.3813 134.218 29.616C134.538 29.8507 134.933 29.968 135.402 29.968C135.679 29.968 135.935 29.9573 136.17 29.936C136.405 29.8933 136.618 29.8613 136.81 29.84V33.936C136.533 33.9787 136.095 34.032 135.498 34.096C134.901 34.16 134.293 34.192 133.674 34.192Z" fill="#6699CC"/>
<path d="M116.459 34.32C115.521 34.32 114.731 34.096 114.091 33.648C113.451 33.2 112.971 32.6347 112.651 31.952C112.331 31.248 112.171 30.5333 112.171 29.808C112.171 28.656 112.395 27.6853 112.843 26.896C113.313 26.1067 113.921 25.4453 114.667 24.912C115.414 24.3787 116.235 23.9307 117.131 23.568C118.027 23.184 118.913 22.8427 119.787 22.544V20.688C119.787 20.368 119.755 20.0907 119.691 19.856C119.627 19.6 119.521 19.408 119.371 19.28C119.222 19.1307 118.998 19.056 118.699 19.056C118.401 19.056 118.166 19.12 117.995 19.248C117.846 19.376 117.739 19.5573 117.675 19.792C117.611 20.0053 117.569 20.2507 117.547 20.528L117.419 21.872L112.555 21.68C112.662 19.4613 113.249 17.8293 114.315 16.784C115.403 15.7173 117.025 15.184 119.179 15.184C121.057 15.184 122.454 15.7067 123.371 16.752C124.31 17.776 124.779 19.1093 124.779 20.752V29.392C124.779 30.16 124.79 30.832 124.811 31.408C124.854 31.984 124.897 32.4853 124.939 32.912C125.003 33.3387 125.057 33.7013 125.099 34H120.427C120.363 33.5093 120.289 32.976 120.203 32.4C120.118 31.824 120.054 31.4827 120.011 31.376C119.798 32.144 119.393 32.8267 118.795 33.424C118.219 34.0213 117.441 34.32 116.459 34.32ZM118.315 30.8C118.529 30.8 118.721 30.7573 118.891 30.672C119.083 30.5867 119.254 30.4693 119.403 30.32C119.553 30.1707 119.681 30.0213 119.787 29.872V24.816C119.361 25.072 118.966 25.3387 118.603 25.616C118.241 25.872 117.931 26.16 117.675 26.48C117.419 26.8 117.217 27.152 117.067 27.536C116.939 27.8987 116.875 28.3147 116.875 28.784C116.875 29.4027 117.003 29.8933 117.259 30.256C117.515 30.6187 117.867 30.8 118.315 30.8Z" fill="#6699CC"/>
<path d="M100.12 34V30.64L105.208 19.312H100.504V15.504H110.648V18.672L105.496 30.192H110.712V34H100.12Z" fill="#6699CC"/>
<path d="M164.517 14.2031C166.161 15.0853 168.059 15.9303 169.839 14.9044C171.181 14.1308 172.276 12.2374 171.682 10.6898C171.513 10.2489 170.974 9.86961 170.619 9.57456C170.213 9.2371 169.78 8.93051 169.334 8.64814C168.474 8.10442 167.535 7.69548 166.557 7.41549C165.703 7.17101 164.734 6.90428 163.926 7.39793C163.316 7.77048 162.832 8.41589 162.575 9.07309C162.212 10.002 162.119 11.141 162.498 12.0839C162.873 13.0182 163.651 13.7224 164.517 14.2031C165.39 14.6878 166.08 13.3029 165.208 12.819C164.382 12.3606 163.831 11.6819 163.811 10.7187C163.796 9.99637 164.114 9.13235 164.695 8.74717C164.974 8.56257 165.46 8.73438 165.834 8.82346C166.432 8.96525 167.006 9.17193 167.561 9.43546C168.642 9.9491 169.592 10.6557 170.429 11.509L170.211 11.1781C170.507 12.1317 169.747 13.2473 168.897 13.6585C167.676 14.2487 166.266 13.3867 165.208 12.819C164.328 12.3466 163.637 13.731 164.517 14.2031Z" fill="#6699CC"/>
<path d="M154.789 3.6929C156.304 3.89346 157.777 4.39666 159.046 5.26146C159.351 5.46907 159.641 5.70159 159.917 5.94605C160.105 6.11321 160.399 6.31808 160.44 6.53268C160.495 6.82231 160.35 7.29382 160.185 7.60744C159.917 8.11767 159.444 8.55883 158.919 8.80089C158.392 9.04426 157.766 8.96951 157.228 8.79677C156.583 8.58939 155.93 8.23347 155.354 7.88099C154.833 7.56293 154.308 7.11664 154.087 6.53249C153.715 5.55325 154.137 4.04296 155.184 3.66796C156.122 3.33183 155.632 1.86197 154.691 2.19912C153.119 2.76203 152.23 4.58346 152.427 6.20275C152.667 8.17933 154.4 9.21606 156.055 9.97969C156.846 10.3444 157.734 10.5934 158.611 10.4739C159.523 10.3496 160.343 9.84934 160.958 9.17584C161.463 8.62192 161.832 7.92082 161.945 7.17567C162.002 6.80149 162.012 6.41343 161.911 6.04529C161.789 5.60415 161.494 5.3026 161.169 4.99502C159.519 3.43121 157.329 2.47144 155.086 2.17473C154.103 2.0448 153.795 3.56221 154.788 3.69358L154.789 3.6929Z" fill="#6699CC"/>
<path d="M161.28 8.67977C161.301 8.67964 161.322 8.68028 161.343 8.68137L161.143 8.66841C161.314 8.67965 161.48 8.72377 161.642 8.77806L161.445 8.71035C161.781 8.82616 162.1 8.98959 162.395 9.18703L162.223 9.07021C162.388 9.18263 162.548 9.30659 162.68 9.45727L162.549 9.30451L162.562 9.32093C162.702 9.48671 162.84 9.61407 163.062 9.65803C163.245 9.6942 163.482 9.65748 163.636 9.54719C163.801 9.42918 163.941 9.25605 163.972 9.04903C164 8.8637 163.987 8.62645 163.86 8.47625C163.701 8.28744 163.542 8.12237 163.342 7.9782C163.117 7.81656 162.885 7.6658 162.638 7.54027C162.185 7.30999 161.688 7.13545 161.176 7.13499C160.77 7.13464 160.41 7.56039 160.454 7.95715C160.503 8.39614 160.844 8.67935 161.279 8.67993L161.28 8.67977Z" fill="#6699CC"/>
<path d="M171.636 13.2083C171.657 13.2094 171.677 13.2104 171.697 13.2115L171.496 13.1985C171.849 13.2214 172.212 13.271 172.553 13.3673C172.654 13.391 172.753 13.3891 172.851 13.3614C172.951 13.3504 173.043 13.3154 173.127 13.2566C173.217 13.2023 173.287 13.1306 173.338 13.0403C173.405 12.9586 173.446 12.8645 173.463 12.7579C173.492 12.5632 173.469 12.3496 173.351 12.1851L173.22 12.0323C173.114 11.938 172.99 11.8765 172.851 11.848C172.427 11.7279 171.972 11.6825 171.533 11.663C171.43 11.6662 171.336 11.6929 171.249 11.7439C171.154 11.78 171.074 11.8379 171.007 11.9172C170.933 11.9948 170.882 12.0847 170.857 12.187C170.815 12.2811 170.8 12.3806 170.81 12.4855C170.832 12.681 170.909 12.8821 171.066 13.0108L171.238 13.1275C171.364 13.1898 171.496 13.2165 171.636 13.208L171.636 13.2083Z" fill="#6699CC"/>
<path d="M153.89 2.84566C153.61 2.50584 153.302 2.16998 152.95 1.90236C152.872 1.82751 152.782 1.77722 152.68 1.75149C152.585 1.70951 152.485 1.69382 152.381 1.70451C152.278 1.70767 152.183 1.73442 152.097 1.78542C152.002 1.82148 151.921 1.87941 151.855 1.95867C151.726 2.11549 151.636 2.31896 151.659 2.52687C151.68 2.71813 151.755 2.93067 151.914 3.05199C152.196 3.26667 152.454 3.52776 152.684 3.79585L152.553 3.6431C152.566 3.65866 152.579 3.67389 152.592 3.68991C152.646 3.78025 152.719 3.85042 152.809 3.90091C152.891 3.96779 152.985 4.00968 153.092 4.02674C153.193 4.05043 153.292 4.04859 153.39 4.02076C153.49 4.00981 153.582 3.97472 153.666 3.91602C153.831 3.7979 153.971 3.62477 154.002 3.41787L154.015 3.21745C154.005 3.08237 153.963 2.95825 153.89 2.84452L153.89 2.84566Z" fill="#6699CC"/>
<mask id="mask0_16_309" style="mask-type:luminance" maskUnits="userSpaceOnUse" x="61" y="15" width="23" height="10">
<path d="M61.6313 15.8856H83.7712V24.3382H61.6313V15.8856Z" fill="white"/>
</mask>
<g mask="url(#mask0_16_309)">
<path d="M70.166 15.8873L61.7892 24.2641H83.7525V15.8873H70.166Z" fill="#6699CC"/>
</g>
<mask id="mask1_16_309" style="mask-type:luminance" maskUnits="userSpaceOnUse" x="40" y="36" width="44" height="10">
<path d="M40.8424 36.6744H83.7712V45.127H40.8424V36.6744Z" fill="white"/>
</mask>
<g mask="url(#mask1_16_309)">
<path d="M40.9486 45.1047H83.7525V36.694H49.3423L40.9486 45.1047Z" fill="#6699CC"/>
</g>
<mask id="mask2_16_309" style="mask-type:luminance" maskUnits="userSpaceOnUse" x="0" y="15" width="84" height="51">
<path d="M0 15.8856H83.7712V65.8856H0V15.8856Z" fill="white"/>
</mask>
<g mask="url(#mask2_16_309)">
<path d="M61.8561 15.8873H10.0901V24.2641H41.6357L-0.0125427 65.9114H83.7524V57.5686H20.2088L61.8561 15.8873Z" fill="#6699CC"/>
</g>
</svg>
