<svg width="256" height="256" viewBox="0 0 256 256" fill="none" xmlns="http://www.w3.org/2000/svg">
<g clip-path="url(#clip0_131_2)">
<path d="M8.364 211.779C8.364 211.779 42.635 181.803 50.8325 173.615C62.864 161.646 67.6775 155.882 63.43 146.15C44.8525 108.26 51.2785 61.2225 82.79 29.7205C122.407 -9.90651 186.659 -9.90651 226.282 29.7205C265.904 69.3525 265.904 133.585 226.282 173.222C194.789 204.714 147.738 211.141 109.863 192.568C100.13 188.325 94.3515 193.138 82.387 205.175C74.195 213.367 44.233 247.643 44.233 247.643C28.6885 263.179 16.7285 253.618 9.549 246.448C2.384 239.273 -7.181 227.319 8.364 211.779ZM112.992 143.006C135.942 165.941 173.135 165.941 196.076 143.006C219.016 120.07 219.016 82.867 196.076 59.9315C173.135 36.996 135.942 36.996 112.992 59.9315C90.051 82.867 90.051 120.07 112.992 143.006Z" fill="white"/>
</g>
<defs>
<clipPath id="clip0_131_2">
<rect width="256" height="256" fill="white" transform="matrix(-1 0 0 1 256 0)"/>
</clipPath>
</defs>
</svg>
