<?xml version="1.0" encoding="UTF-8"?>
<svg id="_レイヤー_7" data-name="レイヤー 7" xmlns="http://www.w3.org/2000/svg" width="50.28" height="52.13" viewBox="0 0 50.28 52.13">
  <defs>
    <style>
      .cls-1 {
        fill: #b3a557;
      }

      .cls-1, .cls-2 {
        stroke-width: 0px;
      }

      .cls-2 {
        fill: #fff;
      }
    </style>
  </defs>
  <circle class="cls-2" cx="25.14" cy="26.13" r="25"/>
  <g>
    <path class="cls-1" d="m30.21,11.09c-.21.3-.55.74-1.02,1.31s-1.03,1.19-1.67,1.85c-.65.66-1.39,1.35-2.22,2.06s-1.71,1.35-2.64,1.92c-.12.69-.35,1.68-.68,2.96-.33,1.28-.77,2.68-1.32,4.18-.54,1.5-1.18,3.03-1.9,4.59-.73,1.56-1.53,2.97-2.42,4.25-.89,1.28-1.86,2.32-2.91,3.12-1.06.8-2.17,1.21-3.35,1.21s-2.09-.2-2.76-.59-1.15-.89-1.47-1.51c-.32-.62-.51-1.29-.57-2.04-.06-.73-.07-1.45-.04-2.15.03-.9.3-1.95.81-3.14.52-1.19,1.23-2.4,2.15-3.62.92-1.22,2.03-2.38,3.32-3.48,1.3-1.1,2.74-2.03,4.34-2.78.78-.33,1.5-.66,2.17-.97.66-.31,1.28-.62,1.86-.93.24-1,.26-1.66.07-1.99s-.48-.5-.83-.5c-.55,0-1.18.24-1.92.72-.74.49-1.65,1.24-2.74,2.26-.3.03-.57,0-.79-.11-.23-.1-.42-.23-.57-.38-.18-.15-.33-.33-.45-.54-.33-.51-.48-1.03-.43-1.54.04-.51.28-.92.7-1.22.42-.33,1.05-.87,1.87-1.61.83-.74,1.64-1.68,2.42-2.82.24-.33.53-.75.88-1.25.35-.5.69-1.04,1.04-1.63.35-.59.68-1.2.99-1.83.32-.63.57-1.23.75-1.81-.6-.09-1.48-.07-2.62.05-.6.12-1.25.25-1.94.41-.6.15-1.29.35-2.06.59-.77.24-1.57.58-2.42,1-.12-.06-.21-.18-.27-.36-.06-.18-.11-.39-.14-.63-.03-.27-.05-.57-.05-.9,0-.42.07-.77.21-1.06.14-.28.31-.52.52-.7.21-.18.44-.32.68-.43s.45-.19.63-.25c.21-.06.62-.14,1.24-.25.62-.1,1.32-.21,2.11-.29.78-.09,1.59-.16,2.44-.21s1.61-.05,2.31-.02c1.42.09,2.31.28,2.69.56.38.29.47.73.29,1.33-.21.6-.62,1.62-1.22,3.05s-1.52,3.08-2.76,4.95c-.51.69-.98,1.34-1.4,1.94-.42.6-.83,1.13-1.22,1.58.51-.24,1.03-.43,1.54-.56s1.03-.21,1.54-.21c.69,0,1.15.33,1.38,1,.22.66.35,1.39.38,2.17,1.21-.76,2.29-1.56,3.23-2.4.95-.84,1.97-1.93,3.05-3.26.27-.33.52-.53.75-.59.22-.06.4-.03.52.11.12.14.18.33.18.59s-.09.52-.27.79Zm-11.3,9.86c.06-.24.13-.46.2-.66.08-.2.14-.4.21-.61-1.57.87-3,1.8-4.3,2.78s-2.42,2.01-3.37,3.09c-.95,1.09-1.7,2.22-2.24,3.4-.54,1.17-.84,2.36-.9,3.57-.03.73.08,1.35.34,1.86s.71.77,1.38.77c.73,0,1.5-.52,2.33-1.56s1.64-2.31,2.44-3.8c.8-1.49,1.54-3.04,2.24-4.65.69-1.62,1.25-3.01,1.67-4.19Z"/>
    <path class="cls-1" d="m42.4,39.29c-.17,2.02-.79,3.83-1.8,5.43-1.03,1.6-2.32,2.94-3.92,4.05-1.58,1.1-3.37,1.93-5.36,2.5-1.98.58-4.05.87-6.14.87-.79,0-1.52-.05-2.2-.16-.68-.1-1.28-.24-1.83-.38-.55-.15-1-.29-1.38-.43s-.64-.24-.79-.34c-.27-.15-.49-.34-.66-.57s-.26-.54-.29-.97c-.03-.24-.05-.43-.05-.57,0-.13.02-.28.05-.42.03-.15.08-.36.16-.61.07-.26.17-.61.29-1.06.06-.27.29-1.12.7-2.56.41-1.43.9-3.18,1.47-5.24.57-2.07,1.2-4.3,1.87-6.72s1.33-4.75,1.97-7.01c.63-2.26,1.21-4.3,1.71-6.13.52-1.82.89-3.17,1.14-4.05-.42.3-.84.62-1.24.95-.41.33-.82.69-1.25,1.08-.45.42-.9.57-1.34.43s-.74-.51-.92-1.11c-.06-.3-.11-.62-.14-.95-.03-.27-.02-.58.02-.93s.16-.69.34-1.02c1-.6,1.97-1.11,2.92-1.54.94-.42,1.86-.8,2.74-1.13.18-.51.38-.9.61-1.18.22-.27.46-.45.7-.54.24-.09.5-.12.77-.09.27.03.56.07.87.14.66.15,1.09.36,1.31.63.42-.06.82-.1,1.21-.14.39-.03.8-.04,1.21-.04,1.75,0,3.27.23,4.58.68,1.29.45,2.36,1.06,3.18,1.83s1.43,1.67,1.78,2.69c.37,1.03.51,2.11.4,3.26-.09,1-.35,2.03-.79,3.1-.44,1.07-1.01,2.12-1.73,3.16-.73,1.04-1.57,2.05-2.53,3.03s-2.04,1.87-3.22,2.69c.94.54,1.77,1.18,2.48,1.9.73.72,1.33,1.51,1.82,2.35.47.84.82,1.7,1.03,2.58s.3,1.72.23,2.53Zm-15.73-8.09c-.42,1.63-.84,3.39-1.27,5.29-.39,1.63-.81,3.52-1.27,5.67-.45,2.16-.93,4.46-1.45,6.89.18.15.42.25.73.32.3.05.59.11.9.17.33.06.69.09,1.08.09,1.35,0,2.74-.28,4.13-.83,1.41-.56,2.69-1.35,3.87-2.38,1.18-1.02,2.16-2.27,2.96-3.73.8-1.46,1.28-3.1,1.42-4.91.07-.81.02-1.55-.16-2.19-.16-.65-.4-1.24-.72-1.77-.31-.52-.68-.99-1.08-1.4-.41-.41-.84-.76-1.29-1.07-1.38.76-2.9,1.39-4.56,1.9-.54.15-1.01.17-1.4.07-.4-.11-.73-.28-1-.5-.28-.23-.49-.49-.64-.79s-.24-.59-.27-.86Zm.77-2.98c-.06.3-.12.6-.21.9-.07.3-.16.62-.24.95.37-.39.98-.75,1.84-1.08s1.68-.5,2.46-.5c.42,0,.82.02,1.22.07.38.04.77.1,1.13.16.85-.54,1.65-1.25,2.44-2.1.79-.86,1.47-1.78,2.06-2.76.58-.98,1.07-1.98,1.45-3.01.37-1.02.61-1.97.7-2.85.17-2.08-.17-3.62-1.07-4.63s-2.15-1.52-3.78-1.52c-1.08,0-2.22.2-3.39.59-.24.78-.54,1.76-.91,2.91-.36,1.16-.74,2.43-1.15,3.82-.4,1.39-.84,2.84-1.28,4.38-.45,1.54-.87,3.09-1.27,4.66Z"/>
  </g>
</svg>