<?xml version="1.0" encoding="UTF-8"?>
<svg id="_レイヤー_1" data-name="レイヤー 1" xmlns="http://www.w3.org/2000/svg" width="200" height="100" viewBox="0 0 200 100">
  <defs>
    <style>
      .cls-1 {
        stroke-width: 0px;
      }
    </style>
  </defs>
  <g>
    <path class="cls-1" d="m138.57,54.78c-.17,1.93-.75,3.66-1.73,5.18-.98,1.53-2.22,2.82-3.74,3.87-1.51,1.05-3.22,1.85-5.12,2.4-1.9.55-3.86.82-5.88.82-.75,0-1.45-.05-2.09-.15-.65-.1-1.23-.22-1.75-.37-.52-.14-.96-.28-1.32-.41s-.61-.24-.76-.32c-.26-.14-.47-.32-.63-.54-.16-.22-.25-.53-.28-.93-.03-.23-.04-.41-.04-.54s.01-.27.04-.41c.03-.14.08-.34.15-.58.07-.25.17-.58.28-1.02.06-.26.28-1.07.67-2.44.39-1.37.86-3.04,1.4-5.01.55-1.97,1.15-4.11,1.79-6.42.65-2.3,1.27-4.54,1.88-6.7.6-2.16,1.15-4.11,1.64-5.85.49-1.74.85-3.03,1.08-3.87-.4.29-.8.59-1.19.91-.39.32-.79.66-1.19,1.04-.43.4-.86.54-1.28.41-.42-.13-.71-.48-.88-1.06-.06-.29-.1-.59-.13-.91-.03-.26-.02-.55.02-.89.04-.33.15-.65.32-.97.95-.58,1.88-1.07,2.79-1.47.91-.4,1.78-.76,2.61-1.08.17-.49.37-.86.58-1.12.22-.26.44-.43.67-.52.23-.09.48-.12.73-.09.26.03.53.07.82.13.63.14,1.05.35,1.25.6.4-.06.79-.1,1.17-.13.37-.03.76-.04,1.17-.04,1.67,0,3.12.22,4.36.65s2.25,1.02,3.05,1.75c.79.73,1.36,1.59,1.71,2.57.35.98.48,2.02.39,3.11-.09.95-.34,1.94-.76,2.96-.42,1.02-.97,2.03-1.66,3.02s-1.5,1.96-2.42,2.89c-.92.94-1.94,1.79-3.07,2.57.89.52,1.68,1.12,2.38,1.81.69.69,1.27,1.44,1.73,2.25.46.81.79,1.63.99,2.46.2.83.27,1.64.22,2.42Zm-15.04-7.73c-.4,1.56-.81,3.24-1.21,5.05-.38,1.56-.78,3.36-1.21,5.42-.43,2.06-.89,4.25-1.38,6.59.17.14.4.24.69.3.29.06.58.12.86.17.32.06.66.09,1.04.09,1.3,0,2.61-.27,3.95-.8,1.34-.53,2.57-1.29,3.69-2.27,1.12-.98,2.07-2.17,2.83-3.56.76-1.4,1.22-2.96,1.36-4.69.06-.78,0-1.48-.15-2.1-.16-.62-.39-1.18-.69-1.68-.3-.5-.65-.95-1.04-1.34-.39-.39-.8-.73-1.23-1.02-1.33.72-2.78,1.33-4.36,1.81-.52.14-.97.17-1.34.06-.38-.1-.69-.26-.95-.48-.26-.22-.46-.47-.6-.76-.14-.29-.23-.56-.26-.82Zm.73-2.85c-.06.29-.12.58-.19.86-.07.29-.15.59-.24.91.35-.37.93-.72,1.75-1.04.82-.32,1.61-.48,2.35-.48.4,0,.79.02,1.17.06.37.04.73.09,1.08.15.81-.52,1.58-1.19,2.33-2.01.75-.82,1.4-1.7,1.97-2.64.56-.94,1.02-1.89,1.38-2.87.36-.98.58-1.89.67-2.72.17-1.99-.17-3.46-1.01-4.43-.85-.96-2.05-1.45-3.61-1.45-1.04,0-2.12.19-3.24.56-.23.75-.52,1.68-.86,2.79s-.71,2.33-1.1,3.65c-.39,1.33-.8,2.72-1.23,4.19-.43,1.47-.84,2.95-1.21,4.45Z"/>
    <path class="cls-1" d="m141.68,58.15c1.27-5.33,2.28-9.61,3.05-12.83.76-3.23,1.35-5.69,1.75-7.39.46-2.02.78-3.41.95-4.19.09-.55.16-1.08.22-1.6.06-.46.09-.94.09-1.43s-.04-.94-.13-1.34c.23-.14.48-.26.76-.35.27-.09.54-.16.8-.22.32-.09.63-.16.95-.22.32-.06.6-.09.86-.09.23,0,.45.02.65.06.2.04.33.14.39.28.17.14.25.43.24.86-.02.43-.05.88-.11,1.34-.12.55-.25,1.14-.39,1.77-.35,1.24-.82,3.02-1.43,5.36-.52,1.99-1.22,4.7-2.1,8.12-.88,3.43-1.98,7.75-3.3,12.96-.14.14-.32.25-.52.3-.2.06-.39.09-.56.09-.2,0-.42-.02-.65-.04-.2-.06-.4-.14-.61-.26-.17-.12-.34-.27-.52-.45-.17-.19-.3-.44-.39-.76Z"/>
    <path class="cls-1" d="m164.8,51.97c-.29,1.1-.68,2.12-1.17,3.07-.49.95-1.07,1.77-1.75,2.46-.68.69-1.44,1.23-2.29,1.62-.85.39-1.78.58-2.79.58-1.18,0-2.11-.25-2.79-.76-.68-.5-1.18-1.13-1.51-1.88-.33-.75-.53-1.57-.61-2.46-.07-.89-.11-1.73-.11-2.51,0-.55.06-1.15.19-1.81.13-.66.31-1.34.54-2.03.23-.69.53-1.38.89-2.07.36-.69.78-1.32,1.27-1.9.17-.49.44-.92.8-1.3.36-.37.78-.68,1.25-.93.47-.24.99-.43,1.53-.56.55-.13,1.08-.19,1.6-.19.09,0,.17.02.24.04.07.03.15.06.24.09.37.03.84.17,1.4.43.56.26,1.11.65,1.64,1.17.53.52.99,1.17,1.36,1.97.37.79.56,1.75.56,2.87,0,.23-.02.51-.04.84-.03.33-.06.61-.09.84.66-.26,1.35-.58,2.07-.95.72-.37,1.42-.77,2.09-1.19.68-.42,1.3-.84,1.88-1.27.58-.43,1.04-.82,1.38-1.17.29-.26.53-.4.73-.43.2-.03.35.03.43.17.09.14.1.35.04.6s-.22.55-.47.86c-.14.17-.51.52-1.1,1.04-.59.52-1.29,1.08-2.1,1.68-.81.6-1.69,1.2-2.64,1.77-.95.58-1.86,1.01-2.72,1.3Zm-10.07,1.04c0,.52.03,1.03.09,1.53.06.5.17.95.35,1.34.17.39.4.71.69.95.29.25.66.37,1.12.37.52,0,.99-.12,1.43-.37.43-.25.82-.56,1.17-.95.35-.39.66-.83.93-1.34.27-.5.51-1.03.71-1.58-.2.03-.4.05-.58.06-.19.02-.4.02-.63.02-1.09,0-2.04-.32-2.83-.97-.79-.65-1.4-1.48-1.84-2.48-.17.6-.32,1.2-.43,1.77-.12.58-.17,1.12-.17,1.64Zm2.77-7.6c-.09.26-.13.53-.13.82,0,.46.03.94.09,1.45.06.5.2.96.43,1.36.23.4.6.74,1.1,1.02.5.27,1.2.41,2.1.41.14,0,.29,0,.43-.02.14-.01.29-.04.43-.06.09-.37.17-.71.24-1.02.07-.3.11-.57.11-.8.06-.55.06-1.11,0-1.69-.06-.58-.17-1.1-.32-1.58-.16-.48-.36-.86-.61-1.17-.24-.3-.54-.45-.88-.45-.55,0-1.07.15-1.58.45-.5.3-.97.73-1.4,1.27Z"/>
    <path class="cls-1" d="m180.83,65.02c-.14.69-.32,1.55-.54,2.59s-.46,2.13-.73,3.28c-.27,1.15-.59,2.3-.95,3.43-.36,1.14-.76,2.16-1.19,3.07-.43.91-.91,1.65-1.43,2.23-.52.58-1.09.86-1.73.86-.95,0-1.76-.28-2.44-.84s-1.25-1.27-1.71-2.12c-.46-.85-.8-1.76-1.02-2.74s-.32-1.89-.32-2.72c0-1.15.1-2.11.3-2.87.2-.76.55-1.49,1.06-2.18s1.19-1.43,2.05-2.2c.86-.78,1.97-1.74,3.33-2.89.66-.58,1.3-1.12,1.9-1.64.6-.52,1.18-.99,1.73-1.43.14-.58.28-1.12.41-1.62s.24-.96.32-1.36c-.75,1.01-1.65,1.86-2.7,2.55-1.05.69-2.25,1.04-3.61,1.04-1.24,0-2.24-.55-3-1.66-.76-1.11-1.14-2.74-1.14-4.9,0-1.07.2-2.29.6-3.67.4-1.38.98-2.68,1.73-3.89.75-1.21,1.67-2.23,2.77-3.07,1.09-.83,2.32-1.25,3.67-1.25.63,0,1.18.16,1.64.48.46.32.85.71,1.17,1.19.32.48.56.98.73,1.51.17.53.3,1.03.39,1.49.06-.17.1-.35.13-.54.03-.19.07-.35.13-.5.29-.98.61-1.65.97-2.01.36-.36.9-.54,1.62-.54.4,0,.74.07,1.02.22.27.14.41.27.41.39-.14.32-.26.56-.35.73-.09.17-.17.35-.26.54-.09.19-.17.43-.26.71-.09.29-.2.71-.35,1.25-.06.2-.17.67-.32,1.4-.16.73-.36,1.61-.61,2.61-.25,1.01-.5,2.12-.78,3.33-.27,1.21-.54,2.39-.8,3.54.81-.46,1.64-1.02,2.51-1.69.86-.66,1.69-1.34,2.46-2.03.78-.69,1.47-1.35,2.07-1.97s1.05-1.13,1.34-1.53c.23-.35.49-.59.78-.73.29-.14.54-.19.76-.15.22.04.35.17.39.39.04.22-.05.51-.28.89-.66,1.07-1.47,2.1-2.42,3.09-.95.99-1.92,1.92-2.92,2.76-.99.85-1.96,1.6-2.9,2.25-.94.65-1.74,1.17-2.4,1.58-.29,1.3-.53,2.35-.73,3.15-.2.81-.38,1.54-.52,2.2Zm-7.43,11.54c.58,0,1.04-.42,1.4-1.27s.74-2.01,1.15-3.48c.09-.35.21-.84.37-1.49.16-.65.35-1.39.56-2.22.22-.84.44-1.74.67-2.7.23-.97.47-1.94.73-2.92-.23.2-.47.41-.71.63-.25.22-.5.47-.76.76-.63.61-1.25,1.19-1.84,1.75-.59.56-1.12,1.15-1.58,1.77-.46.62-.83,1.29-1.1,2.01-.27.72-.41,1.56-.41,2.51s.04,1.73.11,2.33c.07.61.17,1.08.3,1.43s.29.58.48.71c.19.13.4.19.63.19Zm1.99-20.05c.61,0,1.17-.16,1.71-.48.53-.32,1.02-.68,1.45-1.1.43-.42.79-.84,1.08-1.27.29-.43.5-.78.65-1.04.11-.26.25-.6.41-1.04.16-.43.28-.85.37-1.25.09-.4.12-.76.11-1.08-.01-.32-.12-.49-.32-.52-.17-.03-.31-.14-.41-.35-.1-.2-.18-.43-.24-.69s-.09-.52-.11-.78c-.01-.26-.04-.49-.07-.69-.14-1.01-.39-1.74-.73-2.2-.35-.46-.73-.69-1.17-.69-.72,0-1.4.29-2.05.86-.65.58-1.22,1.32-1.73,2.23-.5.91-.9,1.9-1.19,2.98-.29,1.08-.43,2.11-.43,3.09,0,1.21.17,2.18.52,2.92s1.07,1.1,2.16,1.1Z"/>
  </g>
  <g>
    <path class="cls-1" d="m28.29,51.99c-.19.28-.52.69-.96,1.22s-.96,1.11-1.57,1.72-1.3,1.25-2.07,1.91c-.77.66-1.6,1.25-2.46,1.79-.11.64-.33,1.57-.63,2.76-.31,1.19-.72,2.49-1.22,3.9-.5,1.41-1.1,2.84-1.77,4.28-.67,1.44-1.43,2.78-2.26,3.97-.83,1.19-1.74,2.16-2.71,2.92-.99.74-2.02,1.11-3.12,1.11s-1.96-.19-2.57-.55c-.61-.36-1.08-.83-1.36-1.41-.3-.58-.47-1.21-.53-1.9s-.06-1.36-.05-2.01c.03-.85.28-1.82.75-2.93.49-1.11,1.14-2.24,2.01-3.37.86-1.14,1.9-2.23,3.1-3.25,1.21-1.03,2.56-1.9,4.05-2.6.74-.31,1.41-.61,2.02-.91.61-.3,1.19-.58,1.72-.86.22-.93.25-1.55.06-1.85-.19-.31-.44-.47-.78-.47-.5,0-1.1.22-1.79.67s-1.54,1.16-2.56,2.1c-.28.03-.53,0-.74-.11-.2-.09-.39-.22-.53-.36-.17-.14-.31-.31-.42-.5-.31-.47-.44-.96-.41-1.44.05-.47.27-.86.66-1.14.39-.31.97-.8,1.76-1.51.77-.69,1.52-1.57,2.26-2.63.22-.31.5-.69.82-1.16s.64-.97.97-1.52.63-1.11.93-1.71.53-1.16.69-1.69c-.56-.08-1.38-.06-2.45.05-.56.11-1.16.24-1.82.38-.56.14-1.21.33-1.91.55-.72.22-1.47.53-2.26.93-.11-.06-.19-.17-.25-.33-.06-.17-.09-.36-.13-.6-.03-.25-.05-.53-.05-.85,0-.39.06-.72.19-.99.13-.27.28-.49.49-.66.19-.17.41-.3.63-.41.22-.09.42-.17.6-.24.19-.06.58-.13,1.16-.24.58-.09,1.22-.19,1.96-.27s1.49-.14,2.27-.19,1.51-.05,2.15-.02c1.32.08,2.16.27,2.51.53.34.27.44.69.27,1.24-.2.56-.58,1.51-1.14,2.85-.56,1.33-1.43,2.87-2.57,4.63-.49.64-.91,1.25-1.3,1.82s-.77,1.05-1.14,1.47c.47-.22.96-.41,1.44-.53.47-.13.96-.19,1.43-.19.64,0,1.08.31,1.29.93s.33,1.3.36,2.02c1.13-.71,2.13-1.44,3.01-2.24.89-.78,1.83-1.8,2.85-3.04.25-.31.49-.49.69-.55.2-.06.38-.02.49.11.11.13.17.31.17.55s-.08.49-.25.74l.05.06Zm-10.55,9.19c.06-.22.13-.42.19-.61s.13-.38.19-.56c-1.46.82-2.81,1.68-4.01,2.59-1.21.91-2.26,1.88-3.14,2.89-.88,1.02-1.58,2.07-2.09,3.17s-.78,2.21-.85,3.34c-.03.67.08,1.25.31,1.72s.67.72,1.29.72c.67,0,1.4-.49,2.16-1.46.77-.97,1.54-2.15,2.27-3.54.74-1.4,1.44-2.84,2.09-4.34s1.16-2.81,1.57-3.9h.02Z"/>
    <path class="cls-1" d="m47.36,50.37c-.39.56-.89,1.25-1.52,2.09-.63.83-1.25,1.66-1.91,2.49-.66.83-1.3,1.58-1.94,2.27-.63.69-1.16,1.18-1.58,1.46-.28.17-.61.31-.97.42s-.74.19-1.11.2-.74,0-1.08-.06c-.34-.06-.63-.19-.89-.36-.25-.2-.47-.47-.63-.85-.14-.31-.27-.72-.41-1.22-.13-.5-.17-1.14-.14-1.9-.67,1.13-1.43,1.99-2.24,2.59-.82.61-1.58,1.05-2.32,1.33-.85.31-1.69.49-2.52.55-.39,0-.82-.13-1.27-.39-.45-.27-.83-.69-1.14-1.27-.31-.58-.5-1.32-.6-2.24-.08-.91.03-2.01.33-3.26.39-1.71,1.02-3.28,1.88-4.69.86-1.41,1.79-2.6,2.81-3.61s2.01-1.76,2.99-2.26,1.8-.74,2.45-.67c.75.14,1.38.36,1.85.67.39.28.66.69.78,1.24.13.55-.11,1.27-.69,2.18.39-.08.72-.14.99-.17.27-.03.47-.05.61-.05.17,0,.28,0,.33.05.03.06.05.17.05.36s-.05.52-.13.99c-.08.49-.2,1.13-.38,1.94s-.39,1.87-.67,3.17c-.06.25-.11.49-.14.69-.05.2-.08.42-.13.63-.05.2-.09.45-.14.74-.06.28-.13.63-.2,1.05-.03.25-.03.53-.02.82s.06.56.14.82.22.45.39.61c.19.16.44.24.78.24.28,0,.64-.17,1.1-.53.45-.34.93-.8,1.44-1.35s1.03-1.16,1.58-1.82,1.07-1.3,1.54-1.91.91-1.16,1.29-1.65c.38-.49.66-.83.82-1.05.22-.25.45-.41.67-.44.22-.05.39.02.5.19s.13.42.06.75c-.06.34-.27.74-.61,1.18l.02.05Zm-12.36,1.85c.14-.56.31-1.22.5-1.98s.36-1.49.5-2.2.25-1.29.31-1.76.05-.69-.06-.66c-.14.03-.3.06-.47.13-.14.06-.33.09-.55.13s-.45.06-.67.13c.22-.45.36-.82.41-1.11s.05-.53.02-.69c-.03-.19-.08-.34-.17-.47-.31-.25-.85-.05-1.63.61-.77.66-1.66,1.88-2.68,3.65-.42.74-.75,1.51-1.02,2.34s-.42,1.61-.53,2.34c-.09.74-.13,1.36-.06,1.91.06.55.17.91.34,1.08.31.31.66.45,1.05.44.39,0,.8-.13,1.21-.33.41-.2.82-.49,1.22-.82.41-.34.77-.69,1.1-1.05s.6-.71.8-1.02c.2-.31.33-.53.36-.67h.03Z"/>
    <path class="cls-1" d="m60.11,48.1c.11-.17.27-.27.44-.31.19-.05.33-.02.44.06s.17.22.19.42c0,.2-.06.47-.24.8-.56,1.07-1.3,2.23-2.21,3.47s-1.88,2.4-2.89,3.48-1.99,1.98-2.95,2.68-1.76,1.05-2.4,1.05c-.93,0-1.69-.19-2.32-.55-.61-.36-1.1-.82-1.46-1.35-.34-.53-.6-1.11-.74-1.76-.14-.63-.19-1.22-.13-1.76.03-.45.13-1.25.3-2.43.17-1.16.39-2.51.67-4.05.28-1.54.6-3.18.96-4.94.34-1.76.72-3.45,1.11-5.08-.47.06-.96.11-1.43.17-.49.06-.91.08-1.3.08-.89,0-1.76-.11-2.56-.31-.8-.2-1.4-.41-1.79-.61-.22-.11-.33-.27-.3-.49.03-.2.11-.42.25-.63s.31-.39.53-.55c.2-.16.41-.24.56-.24.53.06,1.11.11,1.72.14.61.05,1.3.05,2.02.02.53-.03,1.05-.06,1.54-.13s.97-.13,1.46-.2c.36-1.35.72-2.52,1.08-3.53.34-1,.67-1.69.96-2.09.08-.14.27-.27.56-.36s.61-.17.96-.2c.33-.05.66-.05.97,0s.53.14.67.31c.14.22.19.8.17,1.72-.03.93-.19,2.12-.47,3.54,1.18,0,2.23.06,3.14.19.91.13,1.69.27,2.34.42.64.16,1.16.31,1.57.47s.69.27.89.31c.19.06.3.2.31.42s-.03.45-.13.69c-.09.24-.27.44-.49.61-.22.17-.49.22-.75.17-.28-.03-.6-.08-.96-.17-.34-.08-.77-.16-1.27-.2-.49-.06-1.08-.11-1.76-.17s-1.46-.08-2.37-.08c-.17,0-.36,0-.56.02-.2,0-.42.02-.66.02-.11.45-.22.89-.31,1.33s-.24.89-.41,1.36c-.36,1.13-.78,2.35-1.27,3.67-.42,1.16-.93,2.48-1.52,3.97-.6,1.49-1.25,3.07-1.98,4.77-.17,1.21-.14,2.13.06,2.76.2.63.47,1.1.78,1.38.36.31.82.47,1.35.5.42.06.94-.09,1.54-.44.61-.34,1.22-.82,1.88-1.41.64-.6,1.3-1.24,1.96-1.94s1.27-1.4,1.83-2.07c.56-.67,1.05-1.29,1.47-1.83s.72-.94.88-1.16v.02Z"/>
    <path class="cls-1" d="m73.14,48.1c.11-.17.27-.27.44-.31.19-.05.33-.02.44.06s.17.22.19.42c0,.2-.06.47-.24.8-.56,1.07-1.3,2.23-2.21,3.47s-1.88,2.4-2.89,3.48c-1.02,1.08-1.99,1.98-2.95,2.68s-1.76,1.05-2.4,1.05c-.93,0-1.71-.19-2.32-.55s-1.1-.82-1.46-1.35c-.34-.53-.6-1.11-.74-1.76-.14-.63-.19-1.22-.13-1.76.03-.45.13-1.25.3-2.43.17-1.16.39-2.51.67-4.05.28-1.54.6-3.18.96-4.94.34-1.76.72-3.45,1.11-5.08-.49.06-.96.11-1.44.17-.47.06-.91.08-1.3.08-.89,0-1.76-.11-2.56-.31-.8-.2-1.4-.41-1.79-.61-.22-.11-.33-.27-.3-.49.03-.2.11-.42.25-.63s.31-.39.53-.55c.2-.16.41-.24.56-.24.53.06,1.11.11,1.72.14s1.29.05,2.02.02c.53-.03,1.05-.06,1.54-.13s.97-.13,1.46-.2c.36-1.35.72-2.52,1.08-3.53.34-1,.67-1.69.94-2.09.08-.14.28-.27.56-.36.3-.09.61-.17.96-.2.34-.05.66-.05.97,0s.53.14.67.31c.14.22.19.8.17,1.72-.03.93-.19,2.12-.47,3.54,1.18,0,2.23.06,3.14.19.91.13,1.69.27,2.34.42.64.16,1.16.31,1.57.47s.69.27.89.31c.19.06.3.2.31.42,0,.22-.03.45-.13.69-.09.24-.27.44-.49.61s-.47.22-.75.17c-.28-.03-.6-.08-.96-.17-.34-.08-.77-.16-1.27-.2-.49-.06-1.08-.11-1.76-.17s-1.46-.08-2.37-.08c-.17,0-.36,0-.56.02-.2,0-.42.02-.66.02-.11.45-.22.89-.31,1.33s-.24.89-.39,1.36c-.36,1.13-.78,2.35-1.27,3.67-.42,1.16-.93,2.48-1.52,3.97-.6,1.49-1.25,3.07-1.98,4.77-.17,1.21-.14,2.13.06,2.76.2.63.47,1.1.78,1.38.36.31.82.47,1.35.5.42.06.94-.09,1.54-.44.6-.34,1.22-.82,1.88-1.41.64-.6,1.3-1.24,1.96-1.94s1.27-1.4,1.83-2.07c.56-.67,1.05-1.29,1.47-1.83s.72-.94.89-1.16v.02Z"/>
    <path class="cls-1" d="m81.7,43.26c.36-.28.72-.5,1.08-.66.34-.16.67-.27.94-.31.31-.08.61-.11.93-.08.75.06,1.22.3,1.41.72s.2,1.1.06,2.02c-.08.49-.25,1.08-.5,1.82-.25.74-.55,1.63-.88,2.68-.34,1.05-.69,2.26-1.08,3.61-.38,1.35-.74,2.87-1.08,4.56-.34,1.38-.71,2.96-1.1,4.77-.33,1.57-.74,3.47-1.21,5.69-.47,2.23-.96,4.77-1.51,7.64-.14.71-.44,1.11-.91,1.22-.47.11-.96.06-1.46-.17-.2-.11-.38-.24-.55-.38-.14-.14-.3-.3-.47-.49-.17-.19-.31-.42-.42-.74.64-2.37,1.22-4.52,1.71-6.46.49-1.94.94-3.62,1.33-5.06.42-1.66.82-3.15,1.18-4.47.14-.6.27-1.18.39-1.76s.27-1.14.41-1.71c-.36.6-.75,1.16-1.18,1.69-.42.53-.89,1-1.4,1.4s-1.05.69-1.63.91c-.58.2-1.18.27-1.79.19-1.52-.19-2.59-.75-3.23-1.69-.63-.93-.91-2.13-.82-3.62.03-.6.11-1.24.25-1.94s.3-1.38.47-2.02.33-1.24.49-1.76c.16-.52.27-.89.36-1.11.33-1.07.58-1.98.74-2.74s.03-1.4-.36-1.9c.39-.25.77-.42,1.11-.53.34-.09.67-.17.96-.24.31-.03.61-.03.93,0,.75.11,1.21.39,1.33.85.13.45.08,1.13-.14,2.02-.11.49-.3,1.1-.55,1.83-.25.74-.52,1.51-.8,2.3-.28.78-.53,1.51-.75,2.18-.22.66-.34,1.13-.38,1.41-.25,1.27-.27,2.24-.05,2.93s.72,1.03,1.47,1.03c.36,0,.77-.16,1.22-.49.45-.33.91-.75,1.38-1.29s.93-1.14,1.36-1.83c.44-.69.86-1.38,1.24-2.09s.72-1.4,1.02-2.07.52-1.29.66-1.82c.19-1.03.33-1.85.38-2.45.06-.6-.14-1.13-.6-1.6l.02-.02Z"/>
    <path class="cls-1" d="m94.57,27.19c.64-.14,1.1-.19,1.36-.14.27.05.39.14.36.27-.08.22-.24.69-.44,1.36s-.47,1.57-.75,2.62c-.3,1.05-.63,2.26-.99,3.61-.36,1.35-.75,2.79-1.14,4.3-.06.08-.16.19-.3.3-.14.08-.33.16-.56.24-.24.06-.55.11-.96.11-.39.03-.67,0-.85-.06s-.28-.16-.33-.27c-.08-.11-.11-.24-.08-.38.03-.08.06-.19.08-.3.03-.08.05-.19.06-.3,0-.11.03-.2.06-.3l2.2-9.06c.14-.56.36-.97.66-1.24s.83-.52,1.63-.74l-.02-.02Z"/>
    <path class="cls-1" d="m98.99,57.34c.17.11.39.17.66.17s.53-.06.8-.17c.27-.11.52-.27.75-.47.24-.19.41-.45.53-.75.11-.31.11-.75,0-1.33s-.28-1.19-.53-1.85c-.24-.66-.5-1.33-.78-2.01s-.52-1.3-.72-1.85c-.17-.42-.31-.82-.42-1.18-.11-.31-.22-.61-.31-.91-.09-.3-.17-.5-.24-.61-.14.22-.39.6-.74,1.1s-.74,1.03-1.14,1.58-.8,1.05-1.16,1.52-.61.78-.75.96c-.22.25-.44.39-.66.44-.2.05-.39,0-.53-.13s-.22-.31-.24-.55c0-.24.09-.53.31-.86.17-.22.42-.58.75-1.08s.67-1,1.02-1.52.64-.99.93-1.4c.28-.41.44-.66.47-.74.06-.22-.02-.52-.24-.88s-.25-.78-.11-1.27c.11-.39.36-.85.75-1.36.39-.52.86-.99,1.4-1.41s1.08-.74,1.65-.96c.56-.2,1.07-.2,1.52.02.36.22.66.47.89.74.22.27.31.55.25.82-.06.14-.14.33-.25.55-.11.22-.28.5-.5.82-.22.33-.55.74-.97,1.24.08.64.2,1.24.36,1.77.16.53.3,1,.44,1.4.17.47.34.91.55,1.3.25.5.52,1.03.8,1.57s.53,1.07.75,1.58c.22.52.41,1,.55,1.46s.19.83.13,1.14c-.08.47-.33,1.05-.74,1.72s-.91,1.33-1.52,1.96-1.3,1.18-2.07,1.63-1.58.67-2.43.67c-.6,0-1.16-.19-1.71-.55s-1.02-.8-1.4-1.29-.66-.97-.85-1.46c-.19-.47-.2-.85-.06-1.1.17-.34.33-.61.47-.8.14-.19.34-.42.63-.67.11-.08.25-.19.42-.3.14-.08.33-.17.6-.25.25-.08.55-.19.88-.3.28.88.53,1.55.75,2.05.22.49.41.88.55,1.16.17.31.33.52.47.63h.05Z"/>
  </g>
</svg>